<svg xmlns="http://www.w3.org/2000/svg" viewBox="0 0 79.84 96.12"><defs><style>.cls-1{fill:none;stroke:#000;stroke-linecap:round;stroke-linejoin:round;stroke-width:3px;}</style></defs><title>Asset 25</title><g id="Layer_2" data-name="Layer 2"><g id="Layer_2-2" data-name="Layer 2"><rect class="cls-1" x="1.5" y="1.5" width="39.22" height="39.22" rx="3.96"/><polyline class="cls-1" points="9.66 18.54 15.93 29.42 32.55 12.79"/><rect class="cls-1" x="1.5" y="55.4" width="39.22" height="39.22" rx="3.96"/><polyline class="cls-1" points="9.66 72.44 15.93 83.33 32.55 66.7"/><path class="cls-1" d="M59.24,1.5h7.53A3.24,3.24,0,0,1,70,4.74V75a0,0,0,0,1,0,0H56a0,0,0,0,1,0,0V4.74A3.24,3.24,0,0,1,59.24,1.5Z"/><path class="cls-1" d="M56,15.89H75.3a3,3,0,0,1,3,3V34.45"/><polygon class="cls-1" points="70.02 75.01 56 75.01 63.01 94.62 70.02 75.01"/><line class="cls-1" x1="56" y1="61.29" x2="70.02" y2="61.29"/></g></g></svg>