<svg xmlns="http://www.w3.org/2000/svg" viewBox="0 0 93.9 96.12"><defs><style>.cls-1{fill:none;stroke:#000;stroke-linecap:round;stroke-linejoin:round;stroke-width:3px;}</style></defs><title>Asset 26</title><g id="Layer_2" data-name="Layer 2"><g id="Layer_2-2" data-name="Layer 2"><path class="cls-1" d="M11.27,42.38h5.46a4.17,4.17,0,0,1,4.17,4.17v22.1a4.17,4.17,0,0,1-4.17,4.17H11.27A9.77,9.77,0,0,1,1.5,63V52.15A9.77,9.77,0,0,1,11.27,42.38Z"/><path class="cls-1" d="M82.76,42.38h5.46a4.17,4.17,0,0,1,4.17,4.17v22.1a4.17,4.17,0,0,1-4.17,4.17H82.76A9.77,9.77,0,0,1,73,63V52.15a9.77,9.77,0,0,1,9.77-9.77Z" transform="translate(165.39 115.19) rotate(-180)"/><path class="cls-1" d="M14,42.38v-8A32.91,32.91,0,0,1,47,1.5h0a32.9,32.9,0,0,1,32.9,32.91v8"/><path class="cls-1" d="M79.85,72.82V74A14.4,14.4,0,0,1,65.46,88.4H53.17"/><circle class="cls-1" cx="46.95" cy="88.4" r="6.22"/><line class="cls-1" x1="20.9" y1="63.62" x2="1.52" y2="63.62"/><line class="cls-1" x1="72.99" y1="63.62" x2="92.38" y2="63.62"/><circle class="cls-1" cx="46.95" cy="53.69" r="17.56"/><polyline class="cls-1" points="38.84 52.13 43.71 60.58 55.05 46.8"/></g></g></svg>